<svg viewBox="0 0 40 40" xmlns="http://www.w3.org/2000/svg">
    <path fill="#FFF" d="M0 40h40V0H0z"/>
    <path d="M37.92 14.31a18.17 18.17 0 0 0-3.13-.27h-.08c-3.04 0-6.22.6-8.99 1.9a12.9 12.9 0 0 0-3.98 2.67 79.23 79.23 0 0 0-2.55-1.82 1.98 1.98 0 0 1 2.37-1.6c.06-.66.55-1.2 1.19-1.34a2.4 2.4 0 0 1 3.58-3.1 1.52 1.52 0 0 1 2.04-1.92 1.99 1.99 0 0 1 2.97-2.13 2.4 2.4 0 0 1 4.74-.2 1.52 1.52 0 0 1 1.84.55v7.26z" fill="#005251"/>
    <path d="M2.08 11.25c1.68-.03 3.34.08 4.98.45 2.28.51 4.45 1.37 6.54 2.42a57.68 57.68 0 0 1 8.53 5.46l.77.57c3.06 2.28 6.18 4.43 9.82 5.68 1.35.47 2.77.73 4.19.87l.75.04c.05 0 .16.02.26.01v11.16H2.08V11.25z" fill="#008055"/>
    <path d="M37.92 26.2a18.39 18.39 0 0 1-8-2.13 49.94 49.94 0 0 1-6.8-4.44l-.93-.7a12.87 12.87 0 0 1 4.38-2.76c1.4-.59 2.9-.99 4.4-1.25 2.28-.4 4.66-.47 6.94-.05V26.2z" fill="#006650"/>
</svg>
