<svg viewBox="0 0 800 800" version="1" xmlns="http://www.w3.org/2000/svg">
    <path d="M0 400C0 210 0 134 67 67S208 0 400 0s266 0 333 67 67 143 67 333 0 266-67 333-141 67-333 67-266 0-333-67S0 590 0 400z" fill="rgba(0,0,0,0.5)"/>
    <path d="M150 400c0-119 0-166 42-208s88-42 208-42 166 0 208 42 42 89 42 208 0 166-42 208-88 42-208 42-166 0-208-42-42-89-42-208zm455 0c0-114 0-148-29-176-29-29-62-29-176-29s-148 0-176 29c-29 29-29 62-29 176s0 148 29 176c29 29 62 29 176 29s148 0 176-29c29-29 29-62 29-176zM400 272c70 0 128 58 128 128s-58 128-128 128-128-58-128-128 58-128 128-128zm0 211a83 83 0 1 0 0-166 83 83 0 1 0 0 166zm163-216c0 16-13 30-30 30-16 0-30-14-30-30 0-17 14-30 30-30 17 0 30 13 30 30z" fill="#FFF"/>
</svg>
